<svg xmlns="http://www.w3.org/2000/svg" width="0" height="0">
  <defs>
    <symbol id="prev" viewBox="0 0 1024 1024" fill="currentColor">
      <path
        d="m1023.14755,230.31162l0.08151,563.35071c0.0109,69.49861 -77.32901,111.06405 -135.28491,72.70748l-287.14509,-190.03978l0.01743,117.33273c0.01046,69.49904 -77.32945,111.06405 -135.28491,72.70748l-425.69859,-281.73638c-52.08691,-34.47253 -52.08168,-110.92936 0.00915,-145.39535l425.61534,-281.61346c57.94631,-38.34218 135.2666,3.20408 135.27707,72.687l0.01743,117.28784l287.1185,-189.97527c57.94587,-38.34218 135.26617,3.20408 135.27707,72.687z" />
    </symbol>

    <symbol id="next" viewBox="0 0 1024 1024" fill="currentColor">
      <path
        d="m0.85341,793.68832l-0.08238,-563.35133c-0.00785,-69.49863 77.33078,-111.06365 135.28626,-72.70707l287.14126,190.03766l-0.01613,-117.33059c-0.00785,-69.49863 77.33078,-111.06365 135.28626,-72.70707l425.69742,281.7369c52.08649,34.47254 52.08387,110.9294 -0.00828,145.3954l-425.6146,281.61312c-57.9472,38.34219 -135.26752,-3.20452 -135.27798,-72.68702l-0.01613,-117.28657l-287.11729,189.97359c-57.94763,38.34219 -135.26752,-3.20452 -135.27842,-72.68702z" />
    </symbol>

    <symbol id="play" viewBox="0 0 1024 1024" fill="currentColor">
      <path
        d="m65.7358,250.74422c-0.07255,-198.34616 220.65673,-316.99367 386.04967,-207.51167l395.034,261.49357c148.61908,98.37875 148.58715,316.54592 -0.06053,414.88114l-394.84247,261.20129c-165.32909,109.37048 -385.91699,-9.13857 -385.98955,-207.36947l-0.19112,-522.69488l0,0.00002z" />
    </symbol>

    <symbol id="stop" viewBox="0 0 1024 1024" fill="currentColor">
      <path
        d="m120.71419,6.58923l211.94664,0c35.99272,0 65.21425,29.22153 65.21425,65.21425l0,880.39301c0,35.99272 -29.22153,65.21425 -65.21425,65.21425l-211.94664,0c-35.99272,0 -65.21425,-29.22153 -65.21425,-65.21425l0,-880.39301c0,-35.99272 29.22153,-65.21425 65.21425,-65.21425z" />
      <path
        d="m691.33919,6.58923l211.94664,0c35.99272,0 65.21425,29.22153 65.21425,65.21425l0,880.39301c0,35.99272 -29.22153,65.21425 -65.21425,65.21425l-211.94664,0c-35.99272,0 -65.21425,-29.22153 -65.21425,-65.21425l0,-880.39301c0,-35.99272 29.22153,-65.21425 65.21425,-65.21425z" />
    </symbol>

  </defs>
</svg>